<svg width="38" height="39" viewBox="0 0 38 39" fill="none" xmlns="http://www.w3.org/2000/svg">
<path d="M1.58334 20.2146V28.1312C1.58334 28.5512 1.75016 28.9539 2.04709 29.2508C2.34402 29.5477 2.74675 29.7146 3.16668 29.7146H4.75001C4.75001 30.9743 5.25046 32.1825 6.14125 33.0733C7.03205 33.9641 8.24023 34.4646 9.50001 34.4646C10.7598 34.4646 11.968 33.9641 12.8588 33.0733C13.7496 32.1825 14.25 30.9743 14.25 29.7146H23.75C23.75 30.9743 24.2505 32.1825 25.1413 33.0733C26.0321 33.9641 27.2402 34.4646 28.5 34.4646C29.7598 34.4646 30.968 33.9641 31.8588 33.0733C32.7496 32.1825 33.25 30.9743 33.25 29.7146H34.8333C35.2533 29.7146 35.656 29.5477 35.9529 29.2508C36.2499 28.9539 36.4167 28.5512 36.4167 28.1312V9.13123C36.4167 7.87145 35.9162 6.66327 35.0254 5.77247C34.1346 4.88167 32.9265 4.38123 31.6667 4.38123H17.4167C16.1569 4.38123 14.9487 4.88167 14.0579 5.77247C13.1671 6.66327 12.6667 7.87145 12.6667 9.13123V12.2979H9.50001C8.7626 12.2979 8.03531 12.4696 7.37575 12.7994C6.71618 13.1291 6.14246 13.608 5.70001 14.1979L1.90001 19.2646C1.8537 19.3334 1.81645 19.4079 1.78918 19.4862L1.69418 19.6604C1.6243 19.837 1.58676 20.0247 1.58334 20.2146ZM26.9167 29.7146C26.9167 29.4014 27.0095 29.0953 27.1835 28.8349C27.3575 28.5745 27.6048 28.3716 27.8941 28.2517C28.1834 28.1319 28.5018 28.1006 28.8089 28.1616C29.116 28.2227 29.3982 28.3735 29.6196 28.595C29.841 28.8164 29.9918 29.0985 30.0529 29.4057C30.114 29.7128 30.0827 30.0312 29.9628 30.3205C29.843 30.6098 29.64 30.8571 29.3797 31.0311C29.1193 31.205 28.8132 31.2979 28.5 31.2979C28.0801 31.2979 27.6774 31.1311 27.3804 30.8341C27.0835 30.5372 26.9167 30.1345 26.9167 29.7146ZM15.8333 9.13123C15.8333 8.7113 16.0002 8.30857 16.2971 8.01164C16.594 7.71471 16.9968 7.54789 17.4167 7.54789H31.6667C32.0866 7.54789 32.4893 7.71471 32.7863 8.01164C33.0832 8.30857 33.25 8.7113 33.25 9.13123V26.5479H32.015C31.5698 26.0581 31.0271 25.6667 30.4218 25.3989C29.8165 25.1311 29.1619 24.9928 28.5 24.9928C27.8381 24.9928 27.1835 25.1311 26.5782 25.3989C25.9729 25.6667 25.4302 26.0581 24.985 26.5479H15.8333V9.13123ZM12.6667 18.6312H6.33334L8.23334 16.0979C8.38083 15.9012 8.57207 15.7416 8.79192 15.6317C9.01178 15.5218 9.25421 15.4646 9.50001 15.4646H12.6667V18.6312ZM7.91668 29.7146C7.91668 29.4014 8.00954 29.0953 8.18352 28.8349C8.3575 28.5745 8.60478 28.3716 8.8941 28.2517C9.18341 28.1319 9.50177 28.1006 9.8089 28.1616C10.116 28.2227 10.3982 28.3735 10.6196 28.595C10.841 28.8164 10.9918 29.0985 11.0529 29.4057C11.114 29.7128 11.0827 30.0312 10.9628 30.3205C10.843 30.6098 10.64 30.8571 10.3797 31.0311C10.1193 31.205 9.81316 31.2979 9.50001 31.2979C9.08008 31.2979 8.67736 31.1311 8.38043 30.8341C8.08349 30.5372 7.91668 30.1345 7.91668 29.7146ZM4.75001 21.7979H12.6667V26.1996C11.7322 25.3644 10.5056 24.9324 9.25411 24.9977C8.00257 25.0629 6.82754 25.6201 5.98501 26.5479H4.75001V21.7979Z" fill="#3831FD"/>
</svg>
