<svg width="38" height="39" viewBox="0 0 38 39" fill="none" xmlns="http://www.w3.org/2000/svg">
<path d="M31.6667 2.00623H6.33333C5.07355 2.00623 3.86537 2.50667 2.97457 3.39747C2.08378 4.28827 1.58333 5.49645 1.58333 6.75623V32.0896C1.58333 33.3493 2.08378 34.5575 2.97457 35.4483C3.86537 36.3391 5.07355 36.8396 6.33333 36.8396H31.6667C32.9264 36.8396 34.1346 36.3391 35.0254 35.4483C35.9162 34.5575 36.4167 33.3493 36.4167 32.0896V6.75623C36.4167 5.49645 35.9162 4.28827 35.0254 3.39747C34.1346 2.50667 32.9264 2.00623 31.6667 2.00623ZM12.6667 33.6729H6.33333C5.9134 33.6729 5.51068 33.5061 5.21374 33.2091C4.91681 32.9122 4.75 32.5095 4.75 32.0896V30.2212C5.25773 30.4056 5.79319 30.5019 6.33333 30.5062H12.6667V33.6729ZM12.6667 27.3396H6.33333C5.9134 27.3396 5.51068 27.1727 5.21374 26.8758C4.91681 26.5789 4.75 26.1762 4.75 25.7562V23.8879C5.25773 24.0722 5.79319 24.1686 6.33333 24.1729H12.6667V27.3396ZM12.6667 21.0062H6.33333C5.9134 21.0062 5.51068 20.8394 5.21374 20.5425C4.91681 20.2455 4.75 19.8428 4.75 19.4229V6.75623C4.75 6.3363 4.91681 5.93357 5.21374 5.63664C5.51068 5.33971 5.9134 5.17289 6.33333 5.17289H12.6667V21.0062ZM22.1667 33.6729H15.8333V24.1729H22.1667V33.6729ZM22.1667 21.0062H15.8333V5.17289H22.1667V21.0062ZM33.25 32.0896C33.25 32.5095 33.0832 32.9122 32.7863 33.2091C32.4893 33.5061 32.0866 33.6729 31.6667 33.6729H25.3333V30.5062H31.6667C32.2068 30.5019 32.7423 30.4056 33.25 30.2212V32.0896ZM33.25 25.7562C33.25 26.1762 33.0832 26.5789 32.7863 26.8758C32.4893 27.1727 32.0866 27.3396 31.6667 27.3396H25.3333V24.1729H31.6667C32.2068 24.1686 32.7423 24.0722 33.25 23.8879V25.7562ZM33.25 19.4229C33.25 19.8428 33.0832 20.2455 32.7863 20.5425C32.4893 20.8394 32.0866 21.0062 31.6667 21.0062H25.3333V5.17289H31.6667C32.0866 5.17289 32.4893 5.33971 32.7863 5.63664C33.0832 5.93357 33.25 6.3363 33.25 6.75623V19.4229ZM28.5 11.5062C28.1868 11.5062 27.8807 11.5991 27.6203 11.7731C27.36 11.947 27.157 12.1943 27.0372 12.4836C26.9174 12.773 26.886 13.0913 26.9471 13.3985C27.0082 13.7056 27.159 13.9877 27.3804 14.2091C27.6018 14.4306 27.884 14.5814 28.1911 14.6425C28.4982 14.7036 28.8166 14.6722 29.1059 14.5524C29.3952 14.4325 29.6425 14.2296 29.8165 13.9692C29.9905 13.7088 30.0833 13.4027 30.0833 13.0896C30.0833 12.6696 29.9165 12.2669 29.6196 11.97C29.3227 11.673 28.9199 11.5062 28.5 11.5062ZM9.5 14.6729C9.81315 14.6729 10.1193 14.58 10.3797 14.4061C10.64 14.2321 10.843 13.9848 10.9628 13.6955C11.0826 13.4062 11.114 13.0878 11.0529 12.7807C10.9918 12.4735 10.841 12.1914 10.6196 11.97C10.3982 11.7485 10.116 11.5977 9.80889 11.5366C9.50175 11.4756 9.1834 11.5069 8.89408 11.6268C8.60477 11.7466 8.35748 11.9495 8.1835 12.2099C8.00953 12.4703 7.91666 12.7764 7.91666 13.0896C7.91666 13.5095 8.08348 13.9122 8.38041 14.2091C8.67734 14.5061 9.08007 14.6729 9.5 14.6729Z" fill="#3831FD"/>
</svg>
