<svg width="38" height="39" viewBox="0 0 38 39" fill="none" xmlns="http://www.w3.org/2000/svg">
<path d="M20.5833 25.5834H11.0833C10.6634 25.5834 10.2607 25.7502 9.96375 26.0471C9.66682 26.344 9.5 26.7468 9.5 27.1667C9.5 27.5866 9.66682 27.9893 9.96375 28.2863C10.2607 28.5832 10.6634 28.75 11.0833 28.75H20.5833C21.0033 28.75 21.406 28.5832 21.7029 28.2863C21.9999 27.9893 22.1667 27.5866 22.1667 27.1667C22.1667 26.7468 21.9999 26.344 21.7029 26.0471C21.406 25.7502 21.0033 25.5834 20.5833 25.5834ZM14.25 16.0834H17.4167C17.8366 16.0834 18.2393 15.9165 18.5363 15.6196C18.8332 15.3227 19 14.92 19 14.5C19 14.0801 18.8332 13.6774 18.5363 13.3804C18.2393 13.0835 17.8366 12.9167 17.4167 12.9167H14.25C13.8301 12.9167 13.4274 13.0835 13.1304 13.3804C12.8335 13.6774 12.6667 14.0801 12.6667 14.5C12.6667 14.92 12.8335 15.3227 13.1304 15.6196C13.4274 15.9165 13.8301 16.0834 14.25 16.0834ZM33.25 19.25H28.5V5.00003C28.5011 4.72103 28.4285 4.44669 28.2895 4.20479C28.1504 3.96289 27.95 3.76203 27.7083 3.62253C27.4676 3.48356 27.1946 3.4104 26.9167 3.4104C26.6387 3.4104 26.3657 3.48356 26.125 3.62253L21.375 6.34586L16.625 3.62253C16.3843 3.48356 16.1113 3.4104 15.8333 3.4104C15.5554 3.4104 15.2824 3.48356 15.0417 3.62253L10.2917 6.34586L5.54167 3.62253C5.30097 3.48356 5.02794 3.4104 4.75 3.4104C4.47207 3.4104 4.19903 3.48356 3.95834 3.62253C3.71671 3.76203 3.51624 3.96289 3.37722 4.20479C3.2382 4.44669 3.16556 4.72103 3.16667 5.00003V30.3334C3.16667 31.5931 3.66711 32.8013 4.55791 33.6921C5.44871 34.5829 6.65689 35.0834 7.91667 35.0834H30.0833C31.3431 35.0834 32.5513 34.5829 33.4421 33.6921C34.3329 32.8013 34.8333 31.5931 34.8333 30.3334V20.8334C34.8333 20.4134 34.6665 20.0107 34.3696 19.7138C34.0727 19.4168 33.6699 19.25 33.25 19.25ZM7.91667 31.9167C7.49674 31.9167 7.09402 31.7499 6.79708 31.4529C6.50015 31.156 6.33334 30.7533 6.33334 30.3334V7.73919L9.5 9.54419C9.74437 9.67183 10.016 9.73849 10.2917 9.73849C10.5674 9.73849 10.839 9.67183 11.0833 9.54419L15.8333 6.82086L20.5833 9.54419C20.8277 9.67183 21.0993 9.73849 21.375 9.73849C21.6507 9.73849 21.9223 9.67183 22.1667 9.54419L25.3333 7.73919V30.3334C25.3376 30.8735 25.434 31.409 25.6183 31.9167H7.91667ZM31.6667 30.3334C31.6667 30.7533 31.4999 31.156 31.2029 31.4529C30.906 31.7499 30.5033 31.9167 30.0833 31.9167C29.6634 31.9167 29.2607 31.7499 28.9637 31.4529C28.6668 31.156 28.5 30.7533 28.5 30.3334V22.4167H31.6667V30.3334ZM20.5833 19.25H11.0833C10.6634 19.25 10.2607 19.4168 9.96375 19.7138C9.66682 20.0107 9.5 20.4134 9.5 20.8334C9.5 21.2533 9.66682 21.656 9.96375 21.9529C10.2607 22.2499 10.6634 22.4167 11.0833 22.4167H20.5833C21.0033 22.4167 21.406 22.2499 21.7029 21.9529C21.9999 21.656 22.1667 21.2533 22.1667 20.8334C22.1667 20.4134 21.9999 20.0107 21.7029 19.7138C21.406 19.4168 21.0033 19.25 20.5833 19.25Z" fill="#3831FD"/>
</svg>
