<svg width="38" height="39" viewBox="0 0 38 39" fill="none" xmlns="http://www.w3.org/2000/svg">
<path d="M19 3.78943C15.8685 3.78943 12.8072 4.71804 10.2035 6.45783C7.59969 8.19762 5.57029 10.6704 4.3719 13.5636C3.17352 16.4568 2.85996 19.6403 3.4709 22.7117C4.08183 25.7831 5.58981 28.6043 7.80414 30.8186C10.0185 33.033 12.8397 34.5409 15.9111 35.1519C18.9824 35.7628 22.166 35.4492 25.0592 34.2509C27.9523 33.0525 30.4251 31.0231 32.1649 28.4193C33.9047 25.8155 34.8333 22.7543 34.8333 19.6228C34.8333 17.5435 34.4238 15.4846 33.6281 13.5636C32.8324 11.6426 31.6661 9.89717 30.1959 8.4269C28.7256 6.95664 26.9801 5.79037 25.0592 4.99467C23.1382 4.19897 21.0793 3.78943 19 3.78943ZM20.5833 32.1786V30.7061C20.5833 30.2862 20.4165 29.8834 20.1196 29.5865C19.8226 29.2896 19.4199 29.1228 19 29.1228C18.5801 29.1228 18.1773 29.2896 17.8804 29.5865C17.5835 29.8834 17.4167 30.2862 17.4167 30.7061V32.1786C14.63 31.8252 12.0398 30.5555 10.0535 28.5693C8.06723 26.583 6.79755 23.9928 6.44416 21.2061H7.91666C8.33659 21.2061 8.73932 21.0393 9.03625 20.7423C9.33318 20.4454 9.5 20.0427 9.5 19.6228C9.5 19.2028 9.33318 18.8001 9.03625 18.5032C8.73932 18.2062 8.33659 18.0394 7.91666 18.0394H6.44416C6.79755 15.2527 8.06723 12.6625 10.0535 10.6763C12.0398 8.69 14.63 7.42032 17.4167 7.06693V8.53943C17.4167 8.95935 17.5835 9.36208 17.8804 9.65901C18.1773 9.95595 18.5801 10.1228 19 10.1228C19.4199 10.1228 19.8226 9.95595 20.1196 9.65901C20.4165 9.36208 20.5833 8.95935 20.5833 8.53943V7.06693C23.37 7.42032 25.9602 8.69 27.9465 10.6763C29.9328 12.6625 31.2024 15.2527 31.5558 18.0394H30.0833C29.6634 18.0394 29.2607 18.2062 28.9637 18.5032C28.6668 18.8001 28.5 19.2028 28.5 19.6228C28.5 20.0427 28.6668 20.4454 28.9637 20.7423C29.2607 21.0393 29.6634 21.2061 30.0833 21.2061H31.5558C31.2024 23.9928 29.9328 26.583 27.9465 28.5693C25.9602 30.5555 23.37 31.8252 20.5833 32.1786ZM23.9717 12.5769L16.055 15.9336C15.6859 16.0935 15.3916 16.3879 15.2317 16.7569L11.875 24.6736C11.7503 24.9639 11.7153 25.285 11.7746 25.5953C11.8338 25.9057 11.9846 26.1913 12.2075 26.4153C12.4998 26.7136 12.8982 26.8843 13.3158 26.8903C13.5349 26.8905 13.7513 26.8418 13.9492 26.7478L21.8658 23.3911C22.2349 23.2312 22.5293 22.9368 22.6892 22.5678L26.0458 14.6511C26.1682 14.361 26.2013 14.0409 26.1408 13.7319C26.0804 13.4229 25.9292 13.1389 25.7065 12.9162C25.4839 12.6936 25.1999 12.5424 24.8909 12.4819C24.5818 12.4215 24.2618 12.4546 23.9717 12.5769ZM20.0292 20.6519L16.4192 22.2353L18.0025 18.6253L21.6125 17.0419L20.0292 20.6519Z" fill="#3831FD"/>
</svg>
