<svg width="38" height="39" viewBox="0 0 38 39" fill="none" xmlns="http://www.w3.org/2000/svg">
<path d="M34.8333 3.78943H3.16666C2.74674 3.78943 2.34401 3.95624 2.04708 4.25318C1.75015 4.55011 1.58333 4.95284 1.58333 5.37276V11.7061C1.58608 12.6861 1.89189 13.6412 2.45882 14.4406C3.02574 15.24 3.82604 15.8444 4.75 16.1711V33.8728C4.75 34.2927 4.91681 34.6954 5.21374 34.9923C5.51068 35.2893 5.9134 35.4561 6.33333 35.4561H31.6667C32.0866 35.4561 32.4893 35.2893 32.7863 34.9923C33.0832 34.6954 33.25 34.2927 33.25 33.8728V16.1711C34.174 15.8444 34.9743 15.24 35.5412 14.4406C36.1081 13.6412 36.4139 12.6861 36.4167 11.7061V5.37276C36.4167 4.95284 36.2499 4.55011 35.9529 4.25318C35.656 3.95624 35.2533 3.78943 34.8333 3.78943ZM23.75 6.9561H26.9167V11.7061C26.9167 12.126 26.7499 12.5287 26.4529 12.8257C26.156 13.1226 25.7533 13.2894 25.3333 13.2894C24.9134 13.2894 24.5107 13.1226 24.2137 12.8257C23.9168 12.5287 23.75 12.126 23.75 11.7061V6.9561ZM17.4167 6.9561H20.5833V11.7061C20.5833 12.126 20.4165 12.5287 20.1196 12.8257C19.8227 13.1226 19.4199 13.2894 19 13.2894C18.5801 13.2894 18.1773 13.1226 17.8804 12.8257C17.5835 12.5287 17.4167 12.126 17.4167 11.7061V6.9561ZM11.0833 6.9561H14.25V11.7061C14.25 12.126 14.0832 12.5287 13.7863 12.8257C13.4893 13.1226 13.0866 13.2894 12.6667 13.2894C12.2467 13.2894 11.844 13.1226 11.5471 12.8257C11.2501 12.5287 11.0833 12.126 11.0833 11.7061V6.9561ZM6.33333 13.2894C5.9134 13.2894 5.51068 13.1226 5.21374 12.8257C4.91681 12.5287 4.75 12.126 4.75 11.7061V6.9561H7.91666V11.7061C7.91666 12.126 7.74985 12.5287 7.45292 12.8257C7.15598 13.1226 6.75326 13.2894 6.33333 13.2894ZM22.1667 32.2894H15.8333V25.9561C15.8333 25.1162 16.167 24.3108 16.7608 23.7169C17.3547 23.1231 18.1601 22.7894 19 22.7894C19.8399 22.7894 20.6453 23.1231 21.2392 23.7169C21.833 24.3108 22.1667 25.1162 22.1667 25.9561V32.2894ZM30.0833 32.2894H25.3333V25.9561C25.3333 24.2764 24.6661 22.6655 23.4783 21.4778C22.2906 20.29 20.6797 19.6228 19 19.6228C17.3203 19.6228 15.7094 20.29 14.5217 21.4778C13.3339 22.6655 12.6667 24.2764 12.6667 25.9561V32.2894H7.91666V16.1711C8.49865 15.9551 9.03551 15.633 9.5 15.2211C10.3709 16 11.4983 16.4307 12.6667 16.4307C13.8351 16.4307 14.9625 16 15.8333 15.2211C16.7042 16 17.8316 16.4307 19 16.4307C20.1684 16.4307 21.2958 16 22.1667 15.2211C23.0375 16 24.1649 16.4307 25.3333 16.4307C26.5017 16.4307 27.6291 16 28.5 15.2211C28.9645 15.633 29.5013 15.9551 30.0833 16.1711V32.2894ZM33.25 11.7061C33.25 12.126 33.0832 12.5287 32.7863 12.8257C32.4893 13.1226 32.0866 13.2894 31.6667 13.2894C31.2467 13.2894 30.844 13.1226 30.5471 12.8257C30.2501 12.5287 30.0833 12.126 30.0833 11.7061V6.9561H33.25V11.7061Z" fill="#3831FD"/>
</svg>
