<svg width="38" height="39" viewBox="0 0 38 39" fill="none" xmlns="http://www.w3.org/2000/svg">
<path d="M32.4425 12.5294C32.4335 12.4877 32.4335 12.4445 32.4425 12.4028C32.4348 12.3662 32.4348 12.3285 32.4425 12.2919V12.1494L32.3475 11.9119C32.3089 11.8471 32.2609 11.7884 32.205 11.7378L32.0625 11.6111H31.9833L25.745 7.66861L19.855 4.02694C19.7187 3.91885 19.5628 3.8382 19.3958 3.78944H19.2692C19.1276 3.76582 18.9832 3.76582 18.8417 3.78944H18.6833C18.4994 3.83012 18.3231 3.89959 18.1608 3.99528L6.33332 11.3578L6.19082 11.4686L6.04832 11.5953L5.88999 11.7061L5.81082 11.8011L5.71582 12.0386V12.1811V12.2761C5.70044 12.3811 5.70044 12.4878 5.71582 12.5928V26.4153C5.71528 26.6844 5.78333 26.9491 5.91353 27.1846C6.04374 27.4201 6.23181 27.6185 6.45999 27.7611L18.335 35.1078L18.5725 35.2028H18.6992C18.967 35.2877 19.2546 35.2877 19.5225 35.2028H19.6492L19.8867 35.1078L31.6667 27.8719C31.8948 27.7293 32.0829 27.5309 32.2131 27.2954C32.3433 27.06 32.4114 26.7952 32.4108 26.5261V12.7036C32.4108 12.7036 32.4425 12.5928 32.4425 12.5294ZM19 7.22528L21.8183 8.96694L12.9675 14.4453L10.1333 12.7036L19 7.22528ZM17.4167 30.9753L8.70832 25.6553V15.5378L17.4167 20.9211V30.9753ZM19 18.1344L15.9758 16.3136L24.8267 10.8194L27.8667 12.7036L19 18.1344ZM29.2917 25.6078L20.5833 31.0228V20.9211L29.2917 15.5378V25.6078Z" fill="#3831FD"/>
</svg>
