<svg width="39" height="39" viewBox="0 0 39 39" fill="none" xmlns="http://www.w3.org/2000/svg">
<path d="M14.6 17.6624C14.9132 17.6624 15.2193 17.5695 15.4797 17.3955C15.74 17.2215 15.943 16.9743 16.0628 16.6849C16.1827 16.3956 16.214 16.0773 16.1529 15.7701C16.0918 15.463 15.941 15.1809 15.7196 14.9594C15.4982 14.738 15.216 14.5872 14.9089 14.5261C14.6018 14.465 14.2834 14.4964 13.9941 14.6162C13.7048 14.736 13.4575 14.939 13.2835 15.1994C13.1095 15.4597 13.0167 15.7659 13.0167 16.079C13.0167 16.4989 13.1835 16.9017 13.4804 17.1986C13.7773 17.4955 14.1801 17.6624 14.6 17.6624ZM19.35 3.41235C16.2185 3.41235 13.1573 4.34096 10.5535 6.08075C7.9497 7.82054 5.9203 10.2934 4.72191 13.1865C3.52352 16.0797 3.20997 19.2633 3.8209 22.3346C4.43184 25.406 5.93981 28.2272 8.15415 30.4415C10.3685 32.6559 13.1897 34.1639 16.2611 34.7748C19.3324 35.3857 22.516 35.0722 25.4092 33.8738C28.3023 32.6754 30.7751 30.646 32.5149 28.0422C34.2547 25.4384 35.1833 22.3772 35.1833 19.2457C35.1833 17.1664 34.7738 15.1075 33.9781 13.1865C33.1824 11.2655 32.0161 9.52009 30.5459 8.04983C29.0756 6.57957 27.3301 5.41329 25.4092 4.61759C23.4882 3.82189 21.4293 3.41235 19.35 3.41235ZM19.35 31.9124C16.8448 31.9124 14.3958 31.1695 12.3128 29.7776C10.2298 28.3858 8.60624 26.4075 7.64753 24.093C6.68882 21.7785 6.43798 19.2316 6.92672 16.7745C7.41547 14.3175 8.62185 12.0605 10.3933 10.289C12.1648 8.51754 14.4218 7.31115 16.8789 6.82241C19.336 6.33366 21.8828 6.5845 24.1973 7.54321C26.5119 8.50192 28.4901 10.1254 29.8819 12.2085C31.2738 14.2915 32.0167 16.7405 32.0167 19.2457C32.0167 22.6051 30.6821 25.8269 28.3067 28.2024C25.9312 30.5778 22.7094 31.9124 19.35 31.9124ZM24.1 20.829H14.6C14.1801 20.829 13.7773 20.9958 13.4804 21.2928C13.1835 21.5897 13.0167 21.9924 13.0167 22.4124C13.0167 24.0921 13.6839 25.703 14.8717 26.8907C16.0594 28.0784 17.6703 28.7457 19.35 28.7457C21.0297 28.7457 22.6406 28.0784 23.8283 26.8907C25.0161 25.703 25.6833 24.0921 25.6833 22.4124C25.6833 21.9924 25.5165 21.5897 25.2196 21.2928C24.9227 20.9958 24.5199 20.829 24.1 20.829ZM19.35 25.579C18.7947 25.5785 18.2493 25.4319 17.7685 25.154C17.2877 24.8761 16.8885 24.4766 16.6108 23.9957H22.0892C21.8115 24.4766 21.4123 24.8761 20.9315 25.154C20.4507 25.4319 19.9053 25.5785 19.35 25.579ZM24.1 14.4957C23.7868 14.4957 23.4807 14.5885 23.2203 14.7625C22.96 14.9365 22.757 15.1838 22.6372 15.4731C22.5174 15.7624 22.486 16.0808 22.5471 16.3879C22.6082 16.6951 22.759 16.9772 22.9804 17.1986C23.2019 17.42 23.484 17.5708 23.7911 17.6319C24.0982 17.693 24.4166 17.6617 24.7059 17.5418C24.9952 17.422 25.2425 17.2191 25.4165 16.9587C25.5905 16.6983 25.6833 16.3922 25.6833 16.079C25.6833 15.6591 25.5165 15.2564 25.2196 14.9594C24.9227 14.6625 24.5199 14.4957 24.1 14.4957Z" fill="#3831FD"/>
</svg>
