<svg width="39" height="39" viewBox="0 0 39 39" fill="none" xmlns="http://www.w3.org/2000/svg">
<path d="M35.7833 3.41235H4.11665C3.69672 3.41235 3.294 3.57917 2.99707 3.8761C2.70013 4.17303 2.53332 4.57576 2.53332 4.99569V17.6624C2.53332 18.0823 2.70013 18.485 2.99707 18.7819C3.294 19.0789 3.69672 19.2457 4.11665 19.2457H8.86665V33.4957C8.86665 33.9156 9.03347 34.3183 9.3304 34.6153C9.62733 34.9122 10.0301 35.079 10.45 35.079H29.45C29.8699 35.079 30.2726 34.9122 30.5696 34.6153C30.8665 34.3183 31.0333 33.9156 31.0333 33.4957V19.2457H35.7833C36.2032 19.2457 36.606 19.0789 36.9029 18.7819C37.1998 18.485 37.3667 18.0823 37.3667 17.6624V4.99569C37.3667 4.57576 37.1998 4.17303 36.9029 3.8761C36.606 3.57917 36.2032 3.41235 35.7833 3.41235ZM12.0333 31.9124V28.7457C12.8732 28.7457 13.6786 29.0793 14.2725 29.6732C14.8664 30.267 15.2 31.0725 15.2 31.9124H12.0333ZM27.8667 31.9124H24.7C24.7 31.0725 25.0336 30.267 25.6275 29.6732C26.2213 29.0793 27.0268 28.7457 27.8667 28.7457V31.9124ZM27.8667 25.579C26.1869 25.579 24.576 26.2463 23.3883 27.434C22.2006 28.6217 21.5333 30.2326 21.5333 31.9124H18.3667C18.3667 30.2326 17.6994 28.6217 16.5117 27.434C15.3239 26.2463 13.713 25.579 12.0333 25.579V12.9124H27.8667V25.579ZM34.2 16.079H31.0333V11.329C31.0333 10.9091 30.8665 10.5064 30.5696 10.2094C30.2726 9.9125 29.8699 9.74569 29.45 9.74569H10.45C10.0301 9.74569 9.62733 9.9125 9.3304 10.2094C9.03347 10.5064 8.86665 10.9091 8.86665 11.329V16.079H5.69998V6.57902H34.2V16.079ZM19.95 23.9957C20.8894 23.9957 21.8078 23.7171 22.5889 23.1952C23.3701 22.6732 23.9789 21.9314 24.3384 21.0634C24.6979 20.1955 24.792 19.2404 24.6087 18.319C24.4254 17.3976 23.973 16.5512 23.3087 15.8869C22.6444 15.2226 21.7981 14.7702 20.8767 14.587C19.9553 14.4037 19.0002 14.4977 18.1322 14.8573C17.2643 15.2168 16.5224 15.8256 16.0005 16.6067C15.4786 17.3879 15.2 18.3062 15.2 19.2457C15.2 20.5055 15.7004 21.7136 16.5912 22.6044C17.482 23.4952 18.6902 23.9957 19.95 23.9957ZM19.95 17.6624C20.2631 17.6624 20.5693 17.7552 20.8296 17.9292C21.09 18.1032 21.293 18.3505 21.4128 18.6398C21.5326 18.9291 21.564 19.2474 21.5029 19.5546C21.4418 19.8617 21.291 20.1438 21.0696 20.3653C20.8481 20.5867 20.566 20.7375 20.2589 20.7986C19.9517 20.8597 19.6334 20.8283 19.3441 20.7085C19.0548 20.5887 18.8075 20.3857 18.6335 20.1253C18.4595 19.865 18.3667 19.5588 18.3667 19.2457C18.3667 18.8258 18.5335 18.423 18.8304 18.1261C19.1273 17.8292 19.5301 17.6624 19.95 17.6624Z" fill="#3831FD"/>
</svg>
