<svg width="39" height="39" viewBox="0 0 39 39" fill="none" xmlns="http://www.w3.org/2000/svg">
<path d="M12.6332 17.2831C13.5727 17.2831 14.491 17.0045 15.2722 16.4826C16.0533 15.9606 16.6621 15.2188 17.0216 14.3508C17.3812 13.4829 17.4752 12.5278 17.2919 11.6064C17.1087 10.685 16.6563 9.83862 15.992 9.17432C15.3277 8.51002 14.4813 8.05763 13.5599 7.87435C12.6385 7.69107 11.6834 7.78513 10.8155 8.14465C9.94751 8.50416 9.20566 9.11298 8.68372 9.89412C8.16179 10.6753 7.88321 11.5936 7.88321 12.5331C7.88458 13.7924 8.38547 14.9998 9.27597 15.8903C10.1665 16.7808 11.3738 17.2817 12.6332 17.2831ZM12.6332 10.9497C12.9464 10.9497 13.2525 11.0426 13.5129 11.2166C13.7732 11.3906 13.9762 11.6378 14.096 11.9272C14.2159 12.2165 14.2472 12.5348 14.1861 12.842C14.125 13.1491 13.9742 13.4312 13.7528 13.6527C13.5314 13.8741 13.2492 14.0249 12.9421 14.086C12.635 14.1471 12.3166 14.1157 12.0273 13.9959C11.738 13.876 11.4907 13.6731 11.3167 13.4127C11.1427 13.1524 11.0499 12.8462 11.0499 12.5331C11.0502 12.1132 11.2171 11.7107 11.5139 11.4138C11.8108 11.1169 12.2134 10.95 12.6332 10.9497ZM26.0668 21.2167C25.1273 21.2167 24.209 21.4953 23.4278 22.0172C22.6467 22.5391 22.0379 23.281 21.6784 24.1489C21.3189 25.0169 21.2248 25.9719 21.4081 26.8934C21.5914 27.8148 22.0438 28.6611 22.708 29.3254C23.3723 29.9897 24.2187 30.4421 25.1401 30.6254C26.0615 30.8087 27.0166 30.7146 27.8846 30.3551C28.7525 29.9956 29.4944 29.3868 30.0163 28.6056C30.5382 27.8245 30.8168 26.9061 30.8168 25.9667C30.8154 24.7073 30.3145 23.4999 29.424 22.6094C28.5335 21.7189 27.3262 21.2181 26.0668 21.2167ZM26.0668 27.55C25.7537 27.55 25.4475 27.4572 25.1872 27.2832C24.9268 27.1092 24.7238 26.8619 24.604 26.5726C24.4842 26.2833 24.4528 25.9649 24.5139 25.6578C24.575 25.3506 24.7258 25.0685 24.9472 24.8471C25.1687 24.6257 25.4508 24.4749 25.7579 24.4138C26.0651 24.3527 26.3834 24.384 26.6727 24.5039C26.962 24.6237 27.2093 24.8266 27.3833 25.087C27.5573 25.3474 27.6501 25.6535 27.6501 25.9667C27.6499 26.3865 27.483 26.7891 27.1861 27.086C26.8892 27.3828 26.4866 27.5497 26.0668 27.55ZM31.5528 7.04713C31.4058 6.90007 31.2313 6.78341 31.0392 6.70381C30.8471 6.62422 30.6412 6.58325 30.4333 6.58325C30.2254 6.58325 30.0195 6.62422 29.8274 6.70381C29.6353 6.78341 29.4608 6.90007 29.3138 7.04713L7.14716 29.2138C6.99864 29.3605 6.88058 29.5351 6.7998 29.7275C6.71901 29.92 6.67708 30.1266 6.67643 30.3353C6.67578 30.544 6.71641 30.7509 6.79599 30.9438C6.87558 31.1368 6.99254 31.3121 7.14014 31.4597C7.28775 31.6073 7.46309 31.7243 7.65607 31.8039C7.84904 31.8834 8.05586 31.9241 8.2646 31.9234C8.47334 31.9227 8.67989 31.8808 8.87236 31.8C9.06483 31.7192 9.23942 31.6012 9.38609 31.4526L31.5528 9.28596C31.6998 9.13898 31.8165 8.96447 31.896 8.7724C31.9756 8.58032 32.0166 8.37445 32.0166 8.16654C32.0166 7.95864 31.9756 7.75276 31.896 7.56069C31.8165 7.36862 31.6998 7.19411 31.5528 7.04713Z" fill="#3831FD"/>
</svg>
