<svg width="50" height="50" viewBox="0 0 50 50" fill="none" xmlns="http://www.w3.org/2000/svg">
<path d="M42.7175 32.7993C41.4428 32.2541 40.3571 31.3455 39.5958 30.1869C38.8345 29.0282 38.4314 27.671 38.4369 26.2847C38.4534 25.0472 38.7848 23.8343 39.3999 22.7604C40.015 21.6865 40.8935 20.7869 41.9525 20.1466C42.1921 19.9985 42.3992 19.8034 42.5613 19.573C42.7234 19.3426 42.837 19.0818 42.8954 18.8062C42.9538 18.5307 42.9557 18.2461 42.901 17.9698C42.8463 17.6935 42.7361 17.4312 42.5771 17.1987C41.6251 15.8142 40.384 14.6529 38.9395 13.7948C37.4949 12.9366 35.8814 12.4022 34.2102 12.2284C35.7656 9.75993 36.4715 6.85067 36.2203 3.94386C36.1713 3.41603 35.9197 2.92772 35.5183 2.58139C35.117 2.23506 34.5971 2.05764 34.0678 2.08636C30.4906 2.40519 27.1745 4.09239 24.8108 6.79623C23.3124 8.53244 22.2551 10.6046 21.7285 12.8367C20.6407 12.4685 19.5017 12.2735 18.3533 12.2589C16.2272 12.3191 14.1528 12.9277 12.3311 14.0256C10.5094 15.1235 9.00235 16.6734 7.95595 18.5251C4.02324 25.3529 6.42906 35.5844 10.6893 41.7429C12.3983 44.2107 14.9628 47.9156 18.8314 47.9156C18.9077 47.9156 18.985 47.9156 19.0623 47.9114C20.3585 47.8379 21.6275 47.5095 22.7966 46.945C23.7305 46.4717 24.7608 46.2197 25.8077 46.2085C26.7922 46.2205 27.7604 46.4615 28.6357 46.9125C29.9146 47.5176 31.3083 47.8415 32.723 47.8626C36.7086 47.7873 39.0626 44.349 40.7817 41.8364C42.1381 39.8405 43.1995 37.6595 43.9331 35.3605C44.0895 34.859 44.0512 34.3169 43.8259 33.8423C43.6007 33.3677 43.2049 32.9953 42.7175 32.7993ZM27.9653 9.5164C29.0595 8.29243 30.4306 7.34792 31.9641 6.76169C31.6286 8.41218 30.8863 9.95278 29.8045 11.2437C29.0702 12.1247 28.1768 12.8597 27.1708 13.4105L27.1647 13.4126C27.1057 13.437 27.0467 13.4594 26.9877 13.4838C26.5991 13.6364 26.1189 13.8256 25.7487 13.9477C26.1062 12.3088 26.8683 10.7854 27.9653 9.5164ZM37.3433 39.4847C35.669 41.9302 34.3517 43.6656 32.6467 43.6961C31.8225 43.6935 31.0122 43.4843 30.2897 43.0878C28.8931 42.4073 27.3613 42.0498 25.8077 42.0419C24.2002 42.05 22.6145 42.4148 21.165 43.11C20.4603 43.4698 19.6914 43.6869 18.9026 43.7489H18.8406C17.1468 43.7489 15.3249 41.1183 14.1154 39.3706C11.0891 34.9964 8.29774 26.2806 11.5672 20.6043C12.2528 19.376 13.2443 18.3458 14.4454 17.6136C15.6465 16.8814 17.0165 16.4722 18.4225 16.4256L18.4926 16.4235C19.6786 16.5243 20.8368 16.8379 21.9116 17.3492C22.1853 17.457 22.4548 17.5649 22.7224 17.6645C22.7905 17.693 22.8607 17.7195 22.9319 17.7419C23.6733 18.0401 24.4608 18.2073 25.2594 18.2363C26.3901 18.1464 27.4946 17.8492 28.5177 17.3594C29.9599 16.6594 31.5453 16.3049 33.1483 16.3238C34.8629 16.3909 36.5089 17.0152 37.8368 18.102C36.702 19.1475 35.7984 20.4189 35.1842 21.8345C34.57 23.25 34.2587 24.7784 34.2703 26.3214V26.3235C34.2585 28.1914 34.7208 30.0318 35.6139 31.6725C36.507 33.3132 37.8017 34.7005 39.3769 35.7046C38.8284 37.03 38.1471 38.2965 37.3433 39.4847Z" fill="#3831FD"/>
</svg>
