<svg width="50" height="50" viewBox="0 0 50 50" fill="none" xmlns="http://www.w3.org/2000/svg">
<path d="M39.5833 13.5418H33.3333V11.4584C33.3333 9.80083 32.6748 8.21112 31.5027 7.03902C30.3306 5.86692 28.7409 5.20844 27.0833 5.20844H22.9167C21.2591 5.20844 19.6693 5.86692 18.4972 7.03902C17.3251 8.21112 16.6667 9.80083 16.6667 11.4584V13.5418H10.4167C8.75905 13.5418 7.16934 14.2002 5.99724 15.3724C4.82514 16.5445 4.16666 18.1342 4.16666 19.7918V38.5418C4.16666 40.1994 4.82514 41.7891 5.99724 42.9612C7.16934 44.1333 8.75905 44.7918 10.4167 44.7918H39.5833C41.2409 44.7918 42.8306 44.1333 44.0027 42.9612C45.1748 41.7891 45.8333 40.1994 45.8333 38.5418V19.7918C45.8333 18.1342 45.1748 16.5445 44.0027 15.3724C42.8306 14.2002 41.2409 13.5418 39.5833 13.5418ZM20.8333 11.4584C20.8333 10.9059 21.0528 10.376 21.4435 9.9853C21.8342 9.5946 22.3641 9.3751 22.9167 9.3751H27.0833C27.6359 9.3751 28.1658 9.5946 28.5565 9.9853C28.9472 10.376 29.1667 10.9059 29.1667 11.4584V13.5418H20.8333V11.4584ZM41.6667 38.5418C41.6667 39.0943 41.4472 39.6242 41.0565 40.0149C40.6658 40.4056 40.1359 40.6251 39.5833 40.6251H10.4167C9.86412 40.6251 9.33422 40.4056 8.94352 40.0149C8.55282 39.6242 8.33332 39.0943 8.33332 38.5418V27.0834C10.3655 27.8895 12.4545 28.5441 14.5833 29.0418V30.2709C14.5833 30.8235 14.8028 31.3534 15.1935 31.7441C15.5842 32.1348 16.1141 32.3543 16.6667 32.3543C17.2192 32.3543 17.7491 32.1348 18.1398 31.7441C18.5305 31.3534 18.75 30.8235 18.75 30.2709V29.8334C20.8215 30.1155 22.9093 30.2616 25 30.2709C27.0906 30.2616 29.1784 30.1155 31.25 29.8334V30.2709C31.25 30.8235 31.4695 31.3534 31.8602 31.7441C32.2509 32.1348 32.7808 32.3543 33.3333 32.3543C33.8859 32.3543 34.4158 32.1348 34.8065 31.7441C35.1972 31.3534 35.4167 30.8235 35.4167 30.2709V29.0418C37.5454 28.5441 39.6345 27.8895 41.6667 27.0834V38.5418ZM41.6667 22.5209C39.6404 23.3761 37.5508 24.0727 35.4167 24.6043V23.9584C35.4167 23.4059 35.1972 22.876 34.8065 22.4853C34.4158 22.0946 33.8859 21.8751 33.3333 21.8751C32.7808 21.8751 32.2509 22.0946 31.8602 22.4853C31.4695 22.876 31.25 23.4059 31.25 23.9584V25.5001C27.1068 26.1252 22.8932 26.1252 18.75 25.5001V23.9584C18.75 23.4059 18.5305 22.876 18.1398 22.4853C17.7491 22.0946 17.2192 21.8751 16.6667 21.8751C16.1141 21.8751 15.5842 22.0946 15.1935 22.4853C14.8028 22.876 14.5833 23.4059 14.5833 23.9584V24.6459C12.4492 24.1143 10.3596 23.4178 8.33332 22.5626V19.7918C8.33332 19.2392 8.55282 18.7093 8.94352 18.3186C9.33422 17.9279 9.86412 17.7084 10.4167 17.7084H39.5833C40.1359 17.7084 40.6658 17.9279 41.0565 18.3186C41.4472 18.7093 41.6667 19.2392 41.6667 19.7918V22.5209Z" fill="#3831FD"/>
</svg>
