<svg width="50" height="50" viewBox="0 0 50 50" fill="none" xmlns="http://www.w3.org/2000/svg">
<path d="M38.375 15.0418C37.1021 12.1168 34.9052 9.68984 32.121 8.13287C29.3368 6.57589 26.1189 5.97475 22.9604 6.42158C19.8018 6.86841 16.8769 8.33855 14.6339 10.6067C12.3908 12.8749 10.9533 15.816 10.5417 18.9793C8.7963 19.4044 7.23501 20.3821 6.09053 21.7668C4.94604 23.1514 4.27964 24.8688 4.19063 26.663C4.10162 28.4572 4.59478 30.2321 5.5966 31.7233C6.59843 33.2144 8.05527 34.3418 9.75001 34.9376C9.96608 35.0042 10.1906 35.0392 10.4167 35.0418C10.9692 35.1302 11.5342 34.9955 11.9874 34.6673C12.4407 34.3391 12.7449 33.8443 12.8333 33.2918C12.9218 32.7392 12.787 32.1742 12.4589 31.721C12.1307 31.2678 11.6359 30.9635 11.0833 30.8751C10.2977 30.5915 9.61549 30.0784 9.12513 29.4023C8.63476 28.7261 8.3589 27.9183 8.33335 27.0834C8.33335 25.9784 8.77233 24.9186 9.55373 24.1372C10.3351 23.3558 11.3949 22.9168 12.5 22.9168C13.0525 22.9168 13.5824 22.6973 13.9732 22.3066C14.3639 21.9159 14.5833 21.386 14.5833 20.8334C14.5887 18.3694 15.4673 15.9871 17.0631 14.1097C18.6589 12.2322 20.8685 10.9812 23.2995 10.579C25.7304 10.1768 28.2253 10.6493 30.3408 11.9126C32.4563 13.176 34.0554 15.1483 34.8542 17.4793C34.9733 17.8373 35.1873 18.1562 35.4735 18.402C35.7597 18.6479 36.1073 18.8114 36.4792 18.8751C37.732 19.1019 38.8856 19.7058 39.7858 20.6061C40.686 21.5064 41.2897 22.6602 41.5163 23.913C41.7428 25.1658 41.5814 26.458 41.0535 27.6165C40.5256 28.7751 39.6566 29.7448 38.5625 30.3959C38.0818 30.6722 37.7305 31.1281 37.586 31.6634C37.4414 32.1986 37.5154 32.7694 37.7917 33.2501C38.0679 33.7308 38.5239 34.0821 39.0591 34.2266C39.5944 34.3712 40.1651 34.2972 40.6458 34.0209C42.2255 33.1041 43.5362 31.788 44.4467 30.2047C45.3572 28.6214 45.8354 26.8265 45.8333 25.0001C45.827 22.7587 45.0979 20.5791 43.7542 18.7851C42.4106 16.9911 40.5241 15.6783 38.375 15.0418ZM30.8125 24.2918C30.0228 24.4636 29.2056 24.4651 28.4153 24.2962C27.625 24.1274 26.8797 23.7921 26.2292 23.3126C25.8724 23.0519 25.4419 22.9114 25 22.9114C24.5581 22.9114 24.1276 23.0519 23.7708 23.3126C23.1209 23.7933 22.3757 24.1293 21.5852 24.2982C20.7946 24.4671 19.9771 24.4649 19.1875 24.2918C18.8832 24.2261 18.5681 24.2294 18.2652 24.3015C17.9624 24.3736 17.6795 24.5126 17.4375 24.7084C17.1985 24.9023 17.0055 25.1467 16.8722 25.4241C16.7389 25.7014 16.6687 26.0049 16.6667 26.3126V33.3334C16.6651 34.8274 17.0105 36.3013 17.6757 37.639C18.3409 38.9766 19.3078 40.1415 20.5 41.0418L23.7708 43.4376C24.1276 43.6983 24.5581 43.8388 25 43.8388C25.4419 43.8388 25.8724 43.6983 26.2292 43.4376L29.5 41.0209C30.693 40.1262 31.6608 38.9653 32.3263 37.6307C32.9917 36.2962 33.3366 34.8247 33.3333 33.3334V26.3126C33.3313 26.0049 33.2611 25.7014 33.1278 25.4241C32.9946 25.1467 32.8015 24.9023 32.5625 24.7084C32.3205 24.5126 32.0376 24.3736 31.7348 24.3015C31.432 24.2294 31.1168 24.2261 30.8125 24.2918ZM29.1667 33.3334C29.1483 34.1386 28.952 34.9298 28.5918 35.6502C28.2316 36.3706 27.7165 37.0023 27.0833 37.5001L25 39.0001L22.9167 37.5001C22.2835 37.0023 21.7684 36.3706 21.4082 35.6502C21.048 34.9298 20.8517 34.1386 20.8333 33.3334V28.5834C22.2905 28.518 23.7143 28.1264 25 27.4376C26.2857 28.1264 27.7096 28.518 29.1667 28.5834V33.3334Z" fill="#3831FD"/>
</svg>
