<svg width="50" height="50" viewBox="0 0 50 50" fill="none" xmlns="http://www.w3.org/2000/svg">
<path d="M16.6667 22.9168H33.3333C33.6411 22.9147 33.9445 22.8446 34.2219 22.7113C34.4992 22.578 34.7436 22.3849 34.9375 22.1459C35.1412 21.9116 35.2899 21.6348 35.3728 21.3356C35.4557 21.0364 35.4707 20.7225 35.4167 20.4168L33.3333 10.0001C33.2359 9.52246 32.9741 9.09408 32.5935 8.78955C32.2128 8.48502 31.7374 8.32362 31.25 8.33345H18.75C18.2626 8.32362 17.7872 8.48502 17.4066 8.78955C17.0259 9.09408 16.7641 9.52246 16.6667 10.0001L14.5833 20.4168C14.5237 20.7194 14.532 21.0315 14.6077 21.3306C14.6833 21.6296 14.8245 21.9081 15.0208 22.1459C15.2191 22.3904 15.4702 22.5868 15.7553 22.7203C16.0403 22.8538 16.3519 22.921 16.6667 22.9168ZM20.4583 12.5001H29.5417L30.7917 18.7501H19.2083L20.4583 12.5001ZM45.8333 28.7501C45.7359 28.2725 45.4741 27.8441 45.0935 27.5395C44.7128 27.235 44.2374 27.0736 43.75 27.0834H31.25C30.7626 27.0736 30.2872 27.235 29.9066 27.5395C29.5259 27.8441 29.2641 28.2725 29.1667 28.7501L27.0833 39.1668C27.0237 39.4694 27.032 39.7815 27.1077 40.0806C27.1833 40.3796 27.3245 40.6581 27.5208 40.8959C27.7191 41.1404 27.9702 41.3368 28.2553 41.4703C28.5403 41.6038 28.8519 41.671 29.1667 41.6668H45.8333C46.1411 41.6647 46.4445 41.5946 46.7219 41.4613C46.9992 41.328 47.2436 41.1349 47.4375 40.8959C47.6412 40.6616 47.7899 40.3848 47.8728 40.0856C47.9557 39.7864 47.9707 39.4725 47.9167 39.1668L45.8333 28.7501ZM31.7083 37.5001L32.9583 31.2501H42.0417L43.2917 37.5001H31.7083ZM18.75 27.0834H6.25001C5.76262 27.0736 5.28722 27.235 4.90655 27.5395C4.52589 27.8441 4.26407 28.2725 4.16667 28.7501L2.08334 39.1668C2.02371 39.4694 2.03202 39.7815 2.10768 40.0806C2.18334 40.3796 2.32446 40.6581 2.52084 40.8959C2.71912 41.1404 2.97022 41.3368 3.25527 41.4703C3.54033 41.6038 3.85193 41.671 4.16667 41.6668H20.8333C21.1411 41.6647 21.4445 41.5946 21.7219 41.4613C21.9992 41.328 22.2436 41.1349 22.4375 40.8959C22.6412 40.6616 22.7899 40.3848 22.8728 40.0856C22.9557 39.7864 22.9707 39.4725 22.9167 39.1668L20.8333 28.7501C20.7359 28.2725 20.4741 27.8441 20.0935 27.5395C19.7128 27.235 19.2374 27.0736 18.75 27.0834ZM6.70834 37.5001L7.95834 31.2501H17.0417L18.2917 37.5001H6.70834Z" fill="#3831FD"/>
</svg>
