<svg width="50" height="50" viewBox="0 0 50 50" fill="none" xmlns="http://www.w3.org/2000/svg">
<path d="M37.5 20.8334H29.1667V6.25011C29.1667 5.69758 28.9472 5.16767 28.5565 4.77697C28.1658 4.38627 27.6359 4.16678 27.0833 4.16678H16.6667C16.1141 4.16678 15.5842 4.38627 15.1935 4.77697C14.8028 5.16767 14.5833 5.69758 14.5833 6.25011V16.6668H6.24999C5.69746 16.6668 5.16755 16.8863 4.77685 17.277C4.38615 17.6677 4.16666 18.1976 4.16666 18.7501V43.7501C4.16666 44.3027 4.38615 44.8326 4.77685 45.2233C5.16755 45.614 5.69746 45.8335 6.24999 45.8335H37.5C38.0525 45.8335 38.5824 45.614 38.9731 45.2233C39.3638 44.8326 39.5833 44.3027 39.5833 43.7501V22.9168C39.5833 22.3642 39.3638 21.8343 38.9731 21.4436C38.5824 21.0529 38.0525 20.8334 37.5 20.8334ZM14.5833 41.6668H8.33332V20.8334H14.5833V41.6668ZM25 41.6668H18.75V8.33345H25V41.6668ZM35.4167 41.6668H29.1667V25.0001H35.4167V41.6668ZM43.75 8.33345H41.6667V6.25011C41.6667 5.69758 41.4472 5.16767 41.0565 4.77697C40.6658 4.38627 40.1359 4.16678 39.5833 4.16678C39.0308 4.16678 38.5009 4.38627 38.1102 4.77697C37.7195 5.16767 37.5 5.69758 37.5 6.25011V8.33345H35.4167C34.8641 8.33345 34.3342 8.55294 33.9435 8.94364C33.5528 9.33434 33.3333 9.86424 33.3333 10.4168C33.3333 10.9693 33.5528 11.4992 33.9435 11.8899C34.3342 12.2806 34.8641 12.5001 35.4167 12.5001H37.5V14.5834C37.5 15.136 37.7195 15.6659 38.1102 16.0566C38.5009 16.4473 39.0308 16.6668 39.5833 16.6668C40.1359 16.6668 40.6658 16.4473 41.0565 16.0566C41.4472 15.6659 41.6667 15.136 41.6667 14.5834V12.5001H43.75C44.3025 12.5001 44.8324 12.2806 45.2231 11.8899C45.6138 11.4992 45.8333 10.9693 45.8333 10.4168C45.8333 9.86424 45.6138 9.33434 45.2231 8.94364C44.8324 8.55294 44.3025 8.33345 43.75 8.33345Z" fill="#3831FD"/>
</svg>
