<svg width="50" height="50" viewBox="0 0 50 50" fill="none" xmlns="http://www.w3.org/2000/svg">
<path d="M20.8333 16.6668H33.3333C33.8859 16.6668 34.4158 16.4473 34.8065 16.0566C35.1972 15.6659 35.4167 15.136 35.4167 14.5834C35.4167 14.0309 35.1972 13.501 34.8065 13.1103C34.4158 12.7196 33.8859 12.5001 33.3333 12.5001H20.8333C20.2808 12.5001 19.7509 12.7196 19.3602 13.1103C18.9695 13.501 18.75 14.0309 18.75 14.5834C18.75 15.136 18.9695 15.6659 19.3602 16.0566C19.7509 16.4473 20.2808 16.6668 20.8333 16.6668ZM16.6667 25.0001H33.3333C33.8859 25.0001 34.4158 24.7806 34.8065 24.3899C35.1972 23.9992 35.4167 23.4693 35.4167 22.9168C35.4167 22.3642 35.1972 21.8343 34.8065 21.4436C34.4158 21.0529 33.8859 20.8334 33.3333 20.8334H16.6667C16.1141 20.8334 15.5842 21.0529 15.1935 21.4436C14.8028 21.8343 14.5833 22.3642 14.5833 22.9168C14.5833 23.4693 14.8028 23.9992 15.1935 24.3899C15.5842 24.7806 16.1141 25.0001 16.6667 25.0001ZM16.6667 33.3334H33.3333C33.8859 33.3334 34.4158 33.114 34.8065 32.7233C35.1972 32.3326 35.4167 31.8026 35.4167 31.2501C35.4167 30.6976 35.1972 30.1677 34.8065 29.777C34.4158 29.3863 33.8859 29.1668 33.3333 29.1668H16.6667C16.1141 29.1668 15.5842 29.3863 15.1935 29.777C14.8028 30.1677 14.5833 30.6976 14.5833 31.2501C14.5833 31.8026 14.8028 32.3326 15.1935 32.7233C15.5842 33.114 16.1141 33.3334 16.6667 33.3334ZM41.6667 4.16678H8.33333C7.7808 4.16678 7.25089 4.38627 6.86019 4.77697C6.46949 5.16767 6.25 5.69758 6.25 6.25011V43.7501C6.25 44.137 6.35774 44.5163 6.56114 44.8454C6.76455 45.1745 7.05558 45.4405 7.40164 45.6135C7.74769 45.7865 8.13509 45.8598 8.52043 45.825C8.90576 45.7903 9.27381 45.6489 9.58333 45.4168L13.8958 42.1876L18.1875 45.4168C18.5481 45.6872 18.9867 45.8335 19.4375 45.8335C19.8883 45.8335 20.3269 45.6872 20.6875 45.4168L25 42.1876L29.3125 45.4168C29.6731 45.6872 30.1117 45.8335 30.5625 45.8335C31.0133 45.8335 31.4519 45.6872 31.8125 45.4168L36.1042 42.1876L40.4167 45.4168C40.7277 45.6486 41.0972 45.7889 41.4837 45.8221C41.8702 45.8552 42.2582 45.7798 42.6042 45.6043C42.9477 45.4312 43.2367 45.1663 43.4389 44.839C43.6412 44.5117 43.7488 44.1348 43.75 43.7501V6.25011C43.75 5.69758 43.5305 5.16767 43.1398 4.77697C42.7491 4.38627 42.2192 4.16678 41.6667 4.16678ZM39.5833 39.5834L37.3542 37.9168C36.9935 37.6463 36.5549 37.5001 36.1042 37.5001C35.6534 37.5001 35.2148 37.6463 34.8542 37.9168L30.5625 41.1459L26.25 37.9168C25.8894 37.6463 25.4508 37.5001 25 37.5001C24.5492 37.5001 24.1106 37.6463 23.75 37.9168L19.4375 41.1459L15.1458 37.9168C14.7852 37.6463 14.3466 37.5001 13.8958 37.5001C13.4451 37.5001 13.0065 37.6463 12.6458 37.9168L10.4167 39.5834V8.33345H39.5833V39.5834Z" fill="#3831FD"/>
</svg>
