<svg width="50" height="50" viewBox="0 0 50 50" fill="none" xmlns="http://www.w3.org/2000/svg">
<path d="M40.8958 7.60427C40.6538 7.40848 40.371 7.26942 40.0681 7.19732C39.7653 7.12521 39.4501 7.12189 39.1458 7.1876C36.9197 7.65415 34.6215 7.6601 32.393 7.20507C30.1644 6.75004 28.0526 5.84367 26.1875 4.54177C25.8388 4.29984 25.4244 4.1702 25 4.1702C24.5756 4.1702 24.1612 4.29984 23.8125 4.54177C21.9474 5.84367 19.8356 6.75004 17.607 7.20507C15.3784 7.6601 13.0803 7.65415 10.8542 7.1876C10.5499 7.12189 10.2347 7.12521 9.93187 7.19732C9.62903 7.26942 9.34619 7.40848 9.10416 7.60427C8.86245 7.80035 8.66774 8.0481 8.53435 8.3293C8.40096 8.61051 8.33227 8.91803 8.33333 9.22927V24.7501C8.33147 27.7371 9.04327 30.6813 10.4094 33.3375C11.7756 35.9938 13.7566 38.2852 16.1875 40.0209L23.7917 45.4376C24.1445 45.6888 24.5669 45.8238 25 45.8238C25.4331 45.8238 25.8555 45.6888 26.2083 45.4376L33.8125 40.0209C36.2434 38.2852 38.2244 35.9938 39.5905 33.3375C40.9567 30.6813 41.6685 27.7371 41.6667 24.7501V9.22927C41.6677 8.91803 41.599 8.61051 41.4656 8.3293C41.3322 8.0481 41.1375 7.80035 40.8958 7.60427ZM37.5 24.7501C37.5016 27.0725 36.9485 29.3617 35.8868 31.4272C34.825 33.4927 33.2853 35.2748 31.3958 36.6251L25 41.1876L18.6042 36.6251C16.7147 35.2748 15.175 33.4927 14.1132 31.4272C13.0515 29.3617 12.4984 27.0725 12.5 24.7501V11.6251C16.8676 11.9989 21.2417 10.9856 25 8.72927C28.7582 10.9856 33.1324 11.9989 37.5 11.6251V24.7501ZM28.2083 19.9793L22.6042 25.6043L20.75 23.7293C20.3577 23.337 19.8256 23.1166 19.2708 23.1166C18.716 23.1166 18.184 23.337 17.7917 23.7293C17.3994 24.1216 17.179 24.6536 17.179 25.2084C17.179 25.7632 17.3994 26.2953 17.7917 26.6876L21.125 30.0209C21.3187 30.2162 21.5491 30.3712 21.803 30.477C22.0568 30.5827 22.3291 30.6372 22.6042 30.6372C22.8792 30.6372 23.1515 30.5827 23.4054 30.477C23.6592 30.3712 23.8897 30.2162 24.0833 30.0209L31.25 22.9168C31.6423 22.5245 31.8627 21.9924 31.8627 21.4376C31.8627 20.8828 31.6423 20.3507 31.25 19.9584C30.8577 19.5661 30.3256 19.3457 29.7708 19.3457C29.216 19.3457 28.684 19.5661 28.2917 19.9584L28.2083 19.9793Z" fill="#3831FD"/>
</svg>
