<svg width="153" height="82" viewBox="0 0 153 82" fill="none" xmlns="http://www.w3.org/2000/svg">
<path d="M145.977 73.5098V52.0607L125.712 81.1439V38.3475H132.618V59.8467L152.882 30.7598V73.5098H145.977Z" fill="white"/>
<path d="M116.228 55.327C119.564 57.102 121.232 59.8814 121.232 63.6656C121.232 66.8134 120.047 69.3586 117.678 71.3008C115.31 73.2431 112.259 74.2142 108.523 74.2142C102.018 74.2142 97.6648 71.4516 95.4633 65.926L101.418 62.5605C102.485 65.9763 104.853 67.6841 108.523 67.6841C110.424 67.6841 111.875 67.2823 112.876 66.4785C113.876 65.6749 114.377 64.5865 114.377 63.2135C114.377 61.8405 113.876 60.7522 112.876 59.9484C111.908 59.1447 110.507 58.7428 108.672 58.7428H104.32V52.5643H107.622C109.357 52.5643 110.707 52.1959 111.675 51.4592C112.643 50.689 113.126 49.6509 113.126 48.3449C113.126 47.0388 112.709 46.0174 111.875 45.2806C111.041 44.5104 109.807 44.1254 108.172 44.1254C105.171 44.1254 103.069 45.5988 101.868 48.5458L96.0137 45.13C98.3821 40.1403 102.435 37.6455 108.172 37.6455C111.642 37.6455 114.476 38.5832 116.678 40.4584C118.879 42.3337 119.981 44.8119 119.981 47.8927C119.981 51.0406 118.73 53.5187 116.228 55.327Z" fill="white"/>
<path d="M91.5499 38.3506V73.5129H84.645V61.3066H80.6923L72.6365 73.5129H64.8811L73.4371 60.5531C71.2022 59.7493 69.3843 58.3764 67.9832 56.434C66.5823 54.4917 65.8818 52.3485 65.8818 50.0043C65.8818 46.7895 67.0159 44.0436 69.2842 41.7664C71.5525 39.4892 74.3045 38.3506 77.5401 38.3506H91.5499ZM77.5401 55.2284H84.645V44.8305H77.5401C76.2391 44.8305 75.1217 45.3327 74.1877 46.3375C73.2536 47.3421 72.7867 48.5644 72.7867 50.0043C72.7867 51.4444 73.2536 52.6834 74.1877 53.7215C75.1217 54.7262 76.2391 55.2284 77.5401 55.2284Z" fill="white"/>
<path d="M58.6803 55.2787C61.7492 57.0536 63.2836 59.7327 63.2836 63.3158C63.2836 66.2963 62.2328 68.7408 60.1313 70.6497C58.0299 72.5585 55.4447 73.5129 52.3759 73.5129H37.5154L37.5154 38.3506H51.3251C54.3272 38.3506 56.8457 39.2882 58.8804 41.1635C60.9486 43.0054 61.9826 45.3662 61.9826 48.2463C61.9826 51.1597 60.8818 53.5039 58.6803 55.2787ZM51.3251 44.8305H44.4202V52.5662H51.3251C52.3925 52.5662 53.2765 52.1978 53.9771 51.4611C54.7109 50.7244 55.0778 49.8034 55.0778 48.6983C55.0778 47.5932 54.7275 46.6723 54.0271 45.9356C53.3265 45.1989 52.4259 44.8305 51.3251 44.8305ZM52.3759 67.033C53.5434 67.033 54.5107 66.6479 55.2779 65.8777C56.0452 65.074 56.4287 64.0694 56.4287 62.8638C56.4287 61.6917 56.0452 60.7206 55.2779 59.9503C54.5107 59.1466 53.5434 58.7447 52.3759 58.7447H44.4202V67.033H52.3759Z" fill="white"/>
<path d="M18.2129 74.2142C12.9426 74.2142 8.58949 72.4562 5.15372 68.9399C1.71795 65.4237 0 61.087 0 55.9299C0 50.7393 1.71795 46.4026 5.15372 42.9198C8.58949 39.4036 12.9426 37.6455 18.2129 37.6455C21.3818 37.6455 24.3005 38.399 26.9691 39.9058C29.6709 41.3793 31.7724 43.3886 33.2735 45.9337L27.3194 49.3997C26.452 47.8257 25.2178 46.6034 23.6167 45.7328C22.0155 44.8286 20.2143 44.3765 18.2129 44.3765C14.8105 44.3765 12.0585 45.4481 9.95703 47.5913C7.88892 49.7347 6.85487 52.5141 6.85487 55.9299C6.85487 59.3122 7.88892 62.0749 9.95703 64.2181C12.0585 66.3614 14.8105 67.433 18.2129 67.433C20.2143 67.433 22.0155 66.9976 23.6167 66.127C25.2511 65.2228 26.4854 64.0005 27.3194 62.46L33.2735 65.926C31.7724 68.4712 29.6876 70.4972 27.0191 72.004C24.3505 73.4776 21.4152 74.2142 18.2129 74.2142Z" fill="white"/>
<path d="M87.7066 33.7165L86.1623 28.4869L72.2556 29.7084L71.7998 33.7165H65.204L72.4441 0.748638L80.9676 0L94.8789 33.7165H87.7066ZM73.8678 22.8493L83.438 22.0087L77.2585 6.42733L73.8678 22.8493Z" fill="white"/>
<path d="M50.0119 2.71794L56.8406 2.11816L59.5942 33.7156H52.7132L51.6342 21.3334L38.6746 22.4718L39.6544 33.7156H32.7231L30.1736 4.46037L37.0523 3.85628L38.0988 15.8664L51.0586 14.728L50.0119 2.71794Z" fill="white"/>
</svg>
