<svg width="64" height="34" viewBox="0 0 64 34" xmlns="http://www.w3.org/2000/svg">
<path d="M60.2675 30.2307V21.41L51.9013 33.3702V15.7705H54.7521V24.6119L63.1183 12.6501V30.2307H60.2675Z" fill="#161A1A"/>
<path d="M47.9854 22.7526C49.3627 23.4825 50.0514 24.6255 50.0514 26.1817C50.0514 27.4763 49.5622 28.5229 48.5844 29.3217C47.6066 30.1204 46.3468 30.5198 44.8044 30.5198C42.1188 30.5198 40.3216 29.3836 39.4127 27.1113L41.871 25.7273C42.3117 27.132 43.2894 27.8343 44.8044 27.8343C45.5893 27.8343 46.1883 27.6691 46.6015 27.3385C47.0147 27.008 47.2213 26.5604 47.2213 25.9958C47.2213 25.4312 47.0147 24.9836 46.6015 24.6531C46.202 24.3226 45.6237 24.1573 44.8662 24.1573H43.0691V21.6164H44.4327C45.1487 21.6164 45.7062 21.4649 46.1058 21.162C46.5053 20.8452 46.7048 20.4183 46.7048 19.8812C46.7048 19.3441 46.5326 18.9241 46.1883 18.6211C45.844 18.3043 45.3346 18.146 44.6596 18.146C43.4205 18.146 42.5526 18.7519 42.0569 19.9639L39.64 18.5592C40.6178 16.5072 42.291 15.4812 44.6596 15.4812C46.0921 15.4812 47.2623 15.8668 48.1712 16.638C49.0802 17.4092 49.5349 18.4283 49.5349 19.6953C49.5349 20.9898 49.0184 22.0089 47.9854 22.7526Z" fill="#161A1A"/>
<path d="M37.7971 15.7715V30.2317H34.9463V25.2119H33.3144L29.9885 30.2317H26.7866L30.319 24.9021C29.3963 24.5715 28.6458 24.0069 28.0674 23.2081C27.489 22.4094 27.1998 21.528 27.1998 20.564C27.1998 19.2419 27.668 18.1127 28.6045 17.1762C29.5409 16.2397 30.6771 15.7715 32.013 15.7715L37.7971 15.7715ZM32.013 22.7124H34.9463V18.4363H32.013C31.4759 18.4363 31.0145 18.6428 30.6289 19.056C30.2433 19.4692 30.0505 19.9718 30.0505 20.564C30.0505 21.1562 30.2433 21.6657 30.6289 22.0927C31.0145 22.5058 31.4759 22.7124 32.013 22.7124Z" fill="#161A1A"/>
<path d="M24.2266 22.733C25.4936 23.4629 26.1271 24.5647 26.1271 26.0382C26.1271 27.2639 25.6933 28.2692 24.8257 29.0542C23.9581 29.8392 22.8907 30.2317 21.6238 30.2317H15.4885L15.4885 15.7715H21.19C22.4294 15.7715 23.4692 16.1571 24.3092 16.9283C25.1631 17.6858 25.59 18.6566 25.59 19.841C25.59 21.0391 25.1355 22.0031 24.2266 22.733ZM21.19 18.4363H18.3392V21.6175H21.19C21.6306 21.6175 21.9956 21.466 22.2848 21.1631C22.5878 20.8601 22.7393 20.4814 22.7393 20.0269C22.7393 19.5724 22.5947 19.1937 22.3055 18.8908C22.0162 18.5878 21.6444 18.4363 21.19 18.4363ZM21.6238 27.5669C22.1058 27.5669 22.5051 27.4085 22.8219 27.0918C23.1387 26.7613 23.297 26.3481 23.297 25.8523C23.297 25.3703 23.1387 24.9709 22.8219 24.6542C22.5051 24.3237 22.1058 24.1584 21.6238 24.1584H18.3392V27.5669H21.6238Z" fill="#161A1A"/>
<path d="M7.51934 30.5198C5.34343 30.5198 3.54624 29.7968 2.12775 28.3508C0.709268 26.9047 0 25.1213 0 23.0005C0 20.8659 0.709268 19.0825 2.12775 17.6502C3.54624 16.2042 5.34343 15.4812 7.51934 15.4812C8.82764 15.4812 10.0326 15.791 11.1344 16.4107C12.2499 17.0167 13.1175 17.843 13.7372 18.8897L11.279 20.315C10.9209 19.6677 10.4113 19.1651 9.75034 18.807C9.08928 18.4352 8.34563 18.2493 7.51934 18.2493C6.11463 18.2493 4.97844 18.6899 4.11083 19.5713C3.257 20.4528 2.83008 21.5958 2.83008 23.0005C2.83008 24.3914 3.257 25.5276 4.11083 26.4089C4.97844 27.2904 6.11463 27.7311 7.51934 27.7311C8.34563 27.7311 9.08928 27.552 9.75034 27.194C10.4251 26.8221 10.9347 26.3195 11.279 25.686L13.7372 27.1113C13.1175 28.158 12.2568 28.9912 11.1551 29.6109C10.0533 30.2168 8.84141 30.5198 7.51934 30.5198Z" fill="#161A1A"/>
<path d="M36.2103 13.8656L35.5727 11.715L29.8313 12.2173L29.6431 13.8656H26.92L29.9091 0.307871L33.4281 0L39.1714 13.8656L36.2103 13.8656ZM30.4969 9.39659L34.448 9.05089L31.8967 2.64318L30.4969 9.39659Z" fill="#161A1A"/>
<path d="M20.6478 1.11799L23.4671 0.871338L24.6039 13.8655L21.763 13.8655L21.3175 8.77344L15.9671 9.24158L16.3716 13.8655H13.51L12.4574 1.83455L15.2973 1.58612L15.7294 6.52517L21.0799 6.05704L20.6478 1.11799Z" fill="#161A1A"/>
</svg>
